<svg width="32" height="32" viewBox="0 0 32 32" fill="none" xmlns="http://www.w3.org/2000/svg">
<path d="M27.3332 3.33337H4.6665L6.6665 26L15.9998 28.6667L25.3332 26L27.3332 3.33337Z" fill="#0277BD"/>
<path d="M16 5.33337V26.6L23.4667 24.4667L25.1333 5.33337H16Z" fill="#039BE5"/>
<path d="M22.0667 8.66663H16V11.3333H19.2667L19.0667 14H16V16.6666H18.9333L18.7333 19.6666L16 20.6V23.4L21.2667 21.6666L21.7333 14L22.0667 8.66663Z" fill="white"/>
<path d="M16 8.66663V11.3333H10.0667L9.8667 8.66663H16ZM12.9334 14L13.0667 16.6666H16V14H12.9334ZM13.2 18H10.5334L10.7334 21.6666L16 23.4V20.6L13.2667 19.6666L13.2 18Z" fill="#EEEEEE"/>
</svg>
