<svg width="32" height="32" viewBox="0 0 32 32" fill="none" xmlns="http://www.w3.org/2000/svg">
<path d="M27.3332 3.33337H4.6665L6.6665 26L15.9998 28.6667L25.3332 26L27.3332 3.33337Z" fill="#E65100"/>
<path d="M16 5.33337V26.6L23.4667 24.4667L25.1333 5.33337H16Z" fill="#FF6D00"/>
<path d="M16 16.6666V14H21.7333L21.2667 21.6666L16 23.4V20.6L18.7333 19.6666L18.9333 16.6666H16ZM21.9333 11.3333L22.1333 8.66663H16V11.3333H21.9333Z" fill="white"/>
<path d="M15.9998 20.6V23.4L10.7331 21.6666L10.4664 18H13.1331L13.2664 19.6666L15.9998 20.6ZM12.7331 11.3333H15.9998V8.66663H9.93311L10.3998 16.6666H15.9998V14H12.9331L12.7331 11.3333Z" fill="#EEEEEE"/>
</svg>
