<svg width="32" height="32" viewBox="0 0 32 32" fill="none" xmlns="http://www.w3.org/2000/svg">
<path d="M4 28V4H28V28H4Z" fill="#FFD600"/>
<path d="M19.6922 21.9646C20.1535 22.714 20.6548 23.432 21.7168 23.432C22.6088 23.432 23.0768 22.9886 23.0768 22.3753C23.0768 21.6413 22.5928 21.3806 21.6115 20.9533L21.0735 20.724C19.5208 20.0653 18.4882 19.24 18.4882 17.4966C18.4882 15.89 19.7182 14.6673 21.6402 14.6673C23.0088 14.6673 23.9922 15.1413 24.7015 16.3826L23.0255 17.454C22.6568 16.7953 22.2582 16.536 21.6402 16.536C21.0095 16.536 20.6102 16.934 20.6102 17.454C20.6102 18.0966 21.0102 18.3566 21.9335 18.7546L22.4715 18.984C24.3015 19.7633 25.3335 20.5593 25.3335 22.3486C25.3335 24.2766 23.8108 25.3333 21.7668 25.3333C19.7675 25.3333 18.6322 24.33 18.0002 23.088L19.6922 21.9646ZM11.9682 22.0193C12.3055 22.6233 12.8182 23.088 13.5555 23.088C14.2608 23.088 14.6668 22.8093 14.6668 21.726V14.6666H16.8888V22.0673C16.8888 24.312 15.5868 25.3333 13.6855 25.3333C11.9675 25.3333 10.7275 24.1693 10.2222 23.088L11.9682 22.0193Z" fill="#000001"/>
</svg>
