<svg width="32" height="32" viewBox="0 0 32 32" fill="none" xmlns="http://www.w3.org/2000/svg">
<path d="M16.0048 30.2793C15.6222 30.2793 15.2428 30.1793 14.9075 29.986L11.4142 27.9173C10.8922 27.6253 11.1468 27.522 11.3188 27.4627C12.0148 27.2193 12.1555 27.164 12.8982 26.742C12.9762 26.6973 13.0782 26.7133 13.1582 26.7607L15.8422 28.3533C15.9388 28.406 16.0768 28.406 16.1662 28.3533L26.6308 22.3127C26.7275 22.2573 26.7908 22.1453 26.7908 22.03V9.95467C26.7908 9.834 26.7282 9.72667 26.6288 9.66667L16.1688 3.63067C16.0722 3.57334 15.9435 3.57334 15.8468 3.63067L5.38816 9.666C5.28683 9.72334 5.22216 9.836 5.22216 9.95134V22.0273C5.22216 22.1427 5.28483 22.2527 5.38483 22.3073L8.25083 23.9627C9.80683 24.7407 10.7575 23.824 10.7575 22.902V10.984C10.7575 10.814 10.8908 10.6827 11.0615 10.6827H12.3868C12.5522 10.6827 12.6882 10.8133 12.6882 10.984V22.908C12.6882 24.9827 11.5568 26.1747 9.5895 26.1747C8.98416 26.1747 8.5075 26.1747 7.17683 25.52L4.4315 23.938C3.75283 23.5447 3.3335 22.8107 3.3335 22.028V9.952C3.3335 9.166 3.75283 8.43267 4.43083 8.04467L14.9068 2.00134C15.5695 1.62667 16.4495 1.62667 17.1075 2.00134L27.5702 8.04734C28.2448 8.43734 28.6668 9.16867 28.6668 9.95467V22.0307C28.6668 22.814 28.2448 23.5447 27.5695 23.938L17.1068 29.9807C16.7715 30.1747 16.3915 30.274 16.0042 30.274" fill="#21A366"/>
<path d="M19.2374 21.958C14.6587 21.958 13.6987 19.856 13.6987 18.0933C13.6987 17.926 13.8341 17.792 14.0021 17.792H15.3541C15.5034 17.792 15.6294 17.9007 15.6527 18.048C15.8567 19.4253 16.4647 20.12 19.2334 20.12C21.4387 20.12 22.3767 19.622 22.3767 18.452C22.3767 17.7787 22.1094 17.2787 18.6834 16.9433C15.8174 16.6607 14.0467 16.0293 14.0467 13.7373C14.0467 11.626 15.8281 10.3687 18.8114 10.3687C22.1621 10.3687 23.8227 11.532 24.0321 14.0307C24.0401 14.1173 24.0087 14.2007 23.9507 14.264C23.8934 14.324 23.8121 14.3607 23.7281 14.3607H22.3687C22.2274 14.3607 22.1041 14.2613 22.0754 14.1247C21.7481 12.676 20.9567 12.2127 18.8061 12.2127C16.3987 12.2127 16.1187 13.0507 16.1187 13.6793C16.1187 14.4413 16.4487 14.664 19.6967 15.094C22.9134 15.5207 24.4407 16.1233 24.4407 18.384C24.4407 20.6627 22.5387 21.97 19.2227 21.97" fill="#21A366"/>
</svg>
