<svg width="32" height="32" viewBox="0 0 32 32" fill="none" xmlns="http://www.w3.org/2000/svg">
<path d="M26.5778 17.304C25.5524 17.3093 24.6644 17.5553 23.9204 17.9226C23.6484 17.3793 23.3724 16.9013 23.3264 16.546C23.2724 16.1313 23.2098 15.8833 23.2751 15.3893C23.3404 14.8953 23.6264 14.1953 23.6224 14.1426C23.6184 14.09 23.5584 13.8386 22.9671 13.834C22.3758 13.83 21.8698 13.948 21.8104 14.104C21.7511 14.26 21.6371 14.6113 21.5664 14.978C21.4631 15.514 20.3858 17.4266 19.7744 18.4266C19.5744 18.036 19.4044 17.692 19.3691 17.42C19.3151 17.0053 19.2524 16.7573 19.3178 16.2633C19.3831 15.7693 19.6691 15.0693 19.6651 15.0166C19.6611 14.964 19.6011 14.7126 19.0098 14.708C18.4184 14.704 17.9124 14.822 17.8531 14.978C17.7938 15.134 17.7298 15.4986 17.6091 15.852C17.4878 16.2046 16.0564 19.3946 15.6811 20.222C15.4898 20.6433 15.3238 20.982 15.2064 21.2126L15.2058 21.2113C15.2058 21.2113 15.1984 21.2266 15.1864 21.2526C15.0858 21.4493 15.0264 21.558 15.0264 21.558C15.0264 21.558 15.0271 21.5593 15.0284 21.562C14.9484 21.7066 14.8631 21.8406 14.8211 21.8406C14.7918 21.8406 14.7324 21.456 14.8338 20.928C15.0471 19.8213 15.5584 18.096 15.5538 18.036C15.5511 18.0053 15.6491 17.7046 15.2198 17.5473C14.8024 17.3946 14.6538 17.6493 14.6158 17.65C14.5791 17.6506 14.5518 17.74 14.5518 17.74C14.5518 17.74 15.0164 15.7993 13.6651 15.7993C12.8198 15.7993 11.6491 16.724 11.0724 17.562C10.7084 17.7606 9.9291 18.186 9.1031 18.64C8.78576 18.8146 8.46176 18.9926 8.15443 19.162C8.13376 19.1386 8.11243 19.116 8.09109 19.0926C6.45176 17.344 3.42243 16.1073 3.55043 13.756C3.5971 12.9013 3.89443 10.6506 9.37243 7.92129C13.8598 5.68529 17.4524 6.30062 18.0731 7.66395C18.9598 9.61262 16.1531 13.2333 11.4931 13.756C9.71776 13.9553 8.78243 13.2666 8.54976 13.0106C8.3051 12.7406 8.26843 12.7286 8.17709 12.7793C8.02843 12.862 8.12243 13.1 8.17709 13.242C8.31643 13.604 8.8871 14.246 9.86043 14.566C10.7171 14.8473 12.8018 15.0013 15.3224 14.026C18.1464 12.934 20.3511 9.89529 19.7031 7.35595C19.0444 4.77329 14.7618 3.92395 10.7084 5.36395C8.2931 6.22129 5.68176 7.56662 3.80376 9.32262C1.5711 11.4106 1.2151 13.2286 1.36176 13.988C1.8831 16.6866 5.60243 18.444 7.09176 19.746C7.01843 19.7866 6.9491 19.8246 6.88643 19.8593C6.13976 20.2286 3.30443 21.7126 2.5951 23.28C1.79043 25.058 2.7231 26.334 3.34043 26.506C5.2531 27.038 7.21576 26.0806 8.27109 24.5073C9.32576 22.9346 9.19709 20.886 8.71309 19.9513C8.7071 19.94 8.70043 19.9286 8.69443 19.9166C8.88709 19.8026 9.08376 19.6866 9.27843 19.572C9.65843 19.3486 10.0318 19.1406 10.3551 18.9646C10.1738 19.4606 10.0411 20.056 9.97243 20.9153C9.8911 21.9246 10.3051 23.2293 10.8464 23.7426C11.0851 23.9686 11.3718 23.974 11.5531 23.974C12.1831 23.974 12.4704 23.45 12.7871 22.83C13.1751 22.07 13.5198 21.1846 13.5198 21.1846C13.5198 21.1846 13.0878 23.5753 14.2651 23.5753C14.6944 23.5753 15.1258 23.0186 15.3184 22.7353C15.3191 22.7386 15.3191 22.74 15.3191 22.74C15.3191 22.74 15.3304 22.7213 15.3524 22.6846C15.3971 22.6166 15.4224 22.5733 15.4224 22.5733C15.4224 22.5733 15.4231 22.5686 15.4244 22.5606C15.5971 22.2613 15.9798 21.5786 16.5531 20.4526C17.2944 18.998 18.0051 17.1753 18.0051 17.1753C18.0051 17.1753 18.0711 17.6206 18.2878 18.358C18.4151 18.7913 18.6858 19.2706 18.8998 19.7306C18.7278 19.9693 18.6224 20.106 18.6224 20.106C18.6224 20.106 18.6231 20.1086 18.6251 20.1133C18.4878 20.296 18.3338 20.4926 18.1724 20.6846C17.5871 21.3813 16.8904 22.1773 16.7971 22.4066C16.6871 22.6773 16.7131 22.876 16.9258 23.0366C17.0811 23.1533 17.3571 23.172 17.6458 23.1526C18.1718 23.1173 18.5411 22.9866 18.7238 22.9073C19.0084 22.8066 19.3398 22.6486 19.6504 22.42C20.2244 21.998 20.5704 21.3946 20.5371 20.5946C20.5184 20.154 20.3784 19.7173 20.2004 19.3053C20.2524 19.2306 20.3044 19.1546 20.3571 19.0786C21.2618 17.756 21.9638 16.3026 21.9638 16.3026C21.9638 16.3026 22.0298 16.748 22.2464 17.4853C22.3558 17.858 22.5724 18.2653 22.7671 18.664C21.9164 19.3553 21.3891 20.1586 21.2058 20.6853C20.8671 21.66 21.1324 22.1013 21.6298 22.202C21.8551 22.2473 22.1738 22.144 22.4131 22.0426C22.7111 21.944 23.0691 21.7793 23.4038 21.5333C23.9778 21.1113 24.5298 20.5206 24.4964 19.7213C24.4811 19.3573 24.3824 18.996 24.2484 18.6493C24.9698 18.3486 25.9031 18.182 27.0924 18.3206C29.6438 18.6186 30.1438 20.2113 30.0484 20.878C29.9524 21.5446 29.4178 21.9113 29.2384 22.022C29.0598 22.1326 29.0051 22.1713 29.0198 22.2533C29.0418 22.3726 29.1244 22.3686 29.2771 22.3426C29.4871 22.3073 30.6164 21.8006 30.6651 20.57C30.7258 19.006 29.2291 17.29 26.5778 17.304ZM6.91309 23.9333C6.06776 24.8553 4.88776 25.2033 4.3811 24.91C3.83443 24.5933 4.0511 23.236 5.08776 22.2573C5.71976 21.6613 6.53576 21.112 7.0771 20.774C7.20043 20.7 7.3811 20.5913 7.6011 20.4593C7.63776 20.4386 7.65843 20.4273 7.65843 20.4273L7.65776 20.426C7.70043 20.4006 7.74376 20.3746 7.78843 20.3473C8.16643 21.74 7.80043 22.966 6.91309 23.9333ZM13.0698 19.7486C12.7758 20.466 12.1598 22.302 11.7844 22.2033C11.4624 22.1186 11.2664 20.7233 11.7204 19.35C11.9484 18.6586 12.4364 17.8326 12.7231 17.512C13.1844 16.996 13.6924 16.8273 13.8158 17.0366C13.9724 17.3033 13.2544 19.2986 13.0698 19.7486ZM18.1558 22.1753C18.0311 22.2406 17.9164 22.2813 17.8638 22.25C17.8244 22.2266 17.9151 22.1406 17.9151 22.1406C17.9151 22.1406 18.5511 21.456 18.8018 21.1446C18.9478 20.9633 19.1164 20.748 19.3004 20.508C19.3018 20.532 19.3024 20.556 19.3024 20.5793C19.3011 21.3993 18.5091 21.9526 18.1558 22.1753ZM22.0738 21.282C21.9804 21.216 21.9964 21.002 22.3024 20.3346C22.4224 20.0726 22.6971 19.632 23.1731 19.2106C23.2284 19.384 23.2618 19.55 23.2611 19.7046C23.2551 20.7366 22.5191 21.122 22.0738 21.282Z" fill="#F06292"/>
</svg>
