<svg width="32" height="32" viewBox="0 0 32 32" fill="none" xmlns="http://www.w3.org/2000/svg">
<path d="M24.8104 7.85329C24.7951 7.71263 24.6698 7.64996 24.5764 7.64996C24.4831 7.64996 22.4364 7.49396 22.4364 7.49396C22.4364 7.49396 21.0151 6.07263 20.8431 5.93196C20.6871 5.77596 20.3898 5.82263 20.2651 5.85396C20.2498 5.85396 19.9524 5.94796 19.4684 6.10396C18.9844 4.71329 18.1564 3.44796 16.6724 3.44796H16.5318C16.1244 2.91663 15.5938 2.66663 15.1564 2.66663C11.7198 2.66663 10.0638 6.96263 9.54844 9.14996C8.20511 9.57196 7.25177 9.85263 7.14244 9.89996C6.39244 10.134 6.37711 10.15 6.28311 10.8526C6.20511 11.384 4.25244 26.49 4.25244 26.49L19.4524 29.3333L27.7011 27.5526C27.7164 27.5213 24.8264 7.99396 24.8104 7.85329ZM18.6244 6.32196C18.2498 6.43129 17.7964 6.57196 17.3438 6.72796V6.44729C17.3438 5.60396 17.2344 4.91663 17.0311 4.36929C17.8118 4.46329 18.2964 5.32263 18.6244 6.32196ZM16.0778 4.54129C16.2811 5.07263 16.4218 5.82263 16.4218 6.85329V7.00929C15.5784 7.27463 14.6878 7.54063 13.7658 7.83729C14.2811 5.86929 15.2658 4.90063 16.0778 4.54129ZM15.0778 3.57263C15.2338 3.57263 15.3904 3.63529 15.5151 3.72863C14.4058 4.24396 13.2344 5.54063 12.7498 8.16529C12.0158 8.39929 11.3124 8.60263 10.6411 8.82129C11.2038 6.82196 12.6098 3.57263 15.0778 3.57263Z" fill="#7CB342"/>
<path d="M24.5768 7.61864C24.4828 7.61864 22.4368 7.46264 22.4368 7.46264C22.4368 7.46264 21.0155 6.04131 20.8435 5.90064C20.7802 5.83797 20.7022 5.80664 20.6402 5.80664L19.4995 29.3333L27.7482 27.5526C27.7482 27.5526 24.8582 7.99397 24.8422 7.85331C24.7795 7.71264 24.6702 7.64997 24.5768 7.61864Z" fill="#558B2F"/>
<path d="M16.5281 12.3953L15.5448 15.3613C15.5448 15.3613 14.6534 14.8846 13.5934 14.8846C12.0108 14.8846 11.9341 15.8833 11.9341 16.1293C11.9341 17.4813 15.4681 18.0039 15.4681 21.1846C15.4681 23.6893 13.8854 25.3026 11.7494 25.3026C9.16811 25.3026 7.87744 23.7046 7.87744 23.7046L8.56877 21.4306C8.56877 21.4306 9.92077 22.5986 11.0581 22.5986C11.8108 22.5986 12.1181 22.0146 12.1181 21.5846C12.1181 19.8173 9.22944 19.7406 9.22944 16.8213C9.22944 14.3779 10.9814 12.0119 14.5308 12.0119C15.8514 11.9959 16.5281 12.3953 16.5281 12.3953Z" fill="white"/>
</svg>
