<svg width="32" height="32" viewBox="0 0 32 32" fill="none" xmlns="http://www.w3.org/2000/svg">
<path d="M28 4H4V28H28V4Z" fill="#1976D2"/>
<path d="M18.3269 14.6666H9.48486V16.8426H12.6562V26.6666H15.1689V16.8426H18.3269V14.6666Z" fill="white"/>
<path d="M26.1291 17.3893C26.1291 17.3893 24.9378 16.5947 23.5912 16.5947C22.2445 16.5947 21.7598 17.2347 21.7598 17.9187C21.7598 19.684 26.6805 19.5073 26.6805 23.06C26.6805 28.5327 19.1778 26.1053 19.1778 26.1053V23.48C19.1778 23.48 20.6125 24.5613 22.3332 24.5613C24.0538 24.5613 23.9885 23.436 23.9885 23.2813C23.9885 21.6487 19.1118 21.6487 19.1118 18.0293C19.1118 13.1087 26.2171 15.05 26.2171 15.05L26.1291 17.3893Z" fill="white"/>
</svg>
